HIERARCHY
ROOT hip
{
	OFFSET 0.000000 0.000000 0.000000 
	CHANNELS 6 Xposition Yposition Zposition Xrotation Zrotation Yrotation
	JOINT abdomen
	{
		OFFSET 0.000000 3.402643 0.000000 
		CHANNELS 3 Xrotation Zrotation Yrotation
		JOINT chest
		{
			OFFSET 0.000000 8.438565 -0.680529 
			CHANNELS 3 Xrotation Zrotation Yrotation
			JOINT neck
			{
				OFFSET 0.000000 10.207942 -0.272212 
				CHANNELS 3 Xrotation Zrotation Yrotation
				JOINT head
				{
					OFFSET 0.000000 3.130431 0.000000 
					CHANNELS 3 Xrotation Zrotation Yrotation
					End Site
					{
						OFFSET 0.000000 3.130435 0.000000 
					}
				}
			}
			JOINT lCollar
			{
				OFFSET 3.470700 6.669187 -0.816635 
				CHANNELS 3 Yrotation Zrotation Xrotation
				JOINT lShldr
				{
					OFFSET 3.198488 0.000000 0.000000 
					CHANNELS 3 Zrotation Yrotation Xrotation
					JOINT lForeArm
					{
						OFFSET 10.139888 0.000000 0.000000 
						CHANNELS 3 Yrotation Zrotation Xrotation
						JOINT lHand
						{
							OFFSET 8.370511 0.000000 0.000000 
							CHANNELS 3 Zrotation Yrotation Xrotation
							End Site
							{
								OFFSET 4.083176 0.000000 0.000000 
							}
						}
					}
				}
			}
			JOINT rCollar
			{
				OFFSET -3.470700 6.669187 -0.816635 
				CHANNELS 3 Yrotation Zrotation Xrotation
				JOINT rShldr
				{
					OFFSET -3.198488 0.000000 0.000000 
					CHANNELS 3 Zrotation Yrotation Xrotation
					JOINT rForeArm
					{
						OFFSET -10.139888 0.000000 0.000000 
						CHANNELS 3 Yrotation Zrotation Xrotation
						JOINT rHand
						{
							OFFSET -8.370511 0.000000 0.000000 
							CHANNELS 3 Zrotation Yrotation Xrotation
							End Site
							{
								OFFSET -4.083176 0.000000 0.000000 
							}
						}
					}
				}
			}
		}
	}
	JOINT lThigh
	{
		OFFSET 5.308129 -1.633274 1.361059 
		CHANNELS 3 Xrotation Zrotation Yrotation
		JOINT lShin
		{
			OFFSET -2.041588 -20.007561 0.000000 
			CHANNELS 3 Xrotation Zrotation Yrotation
			JOINT lFoot
			{
				OFFSET 0.000000 -19.190928 -1.224953 
				CHANNELS 3 Xrotation Yrotation Zrotation
				End Site
				{
					OFFSET 0.000000 -2.449906 4.627600 
				}
			}
		}
	}
	JOINT rThigh
	{
		OFFSET -5.308129 -1.633274 1.361059 
		CHANNELS 3 Xrotation Zrotation Yrotation
		JOINT rShin
		{
			OFFSET 2.041588 -20.007561 0.000000 
			CHANNELS 3 Xrotation Zrotation Yrotation
			JOINT rFoot
			{
				OFFSET 0.000000 -19.190928 -1.224953 
				CHANNELS 3 Xrotation Yrotation Zrotation
				End Site
				{
					OFFSET 0.000000 -2.449906 4.627600 
				}
			}
		}
	}
}
MOTION
Frames: 16
Frame Time: 0.033333
0.352998 52.443420 2.092334 6.494141 2.968750 -16.015625 38.129711 4.903811 0.414830 -16.083986 17.890625 8.662109 51.063168 8.107644 2.471410 -69.765625 11.142577 -4.160156 2.000000 -2.000000 0.000000 -90.175781 10.859375 13.916016 -58.671024 -1.588640 -2.299870 -8.648786 55.693714 -12.570063 -2.000000 2.000000 0.000000 67.763672 -7.451173 -22.139942 53.154819 0.936583 -2.357788 -9.558864 -59.024281 -2.997601 -22.025148 4.792873 6.834704 1.501755 -5.301611 -0.303971 -3.507830 5.635536 2.190811 -5.310234 -11.370362 -5.816345 23.890230 4.754695 1.552142 -0.851509 -7.759468 -0.143352 
0.723199 52.183437 4.226372 5.976563 3.134766 -16.562500 38.496265 3.936017 0.686407 -16.025391 18.564453 8.642579 51.063168 8.107644 2.471410 -70.673836 11.328125 -4.951172 2.000000 -2.000000 0.000000 -90.068359 10.361329 13.595509 -58.671040 -1.578891 -2.300438 -8.168416 56.470043 -11.869308 -2.000000 2.000000 0.000000 67.246094 -7.539063 -22.520813 53.178806 1.365076 -2.156688 -8.746053 -58.860371 -3.376146 -24.151028 4.264906 6.522865 10.845098 -5.186565 -1.161249 -8.322217 6.936563 1.595575 -4.940749 -13.072495 -5.118853 27.248539 4.530004 2.256736 1.430634 -7.431870 -0.429299 
1.084788 51.899826 6.339593 5.449219 3.320313 -17.255293 38.866680 2.969267 0.926864 -15.771484 19.228518 8.743451 51.063168 8.107644 2.471410 -71.386719 11.494140 -5.683594 2.000000 -2.000000 0.000000 -89.794922 9.794922 13.536818 -58.671024 -1.588640 -2.299870 -7.424106 56.677574 -11.414166 -2.000000 2.000000 0.000000 67.021484 -8.154297 -22.958984 53.350960 1.484425 -2.022624 -8.831757 -58.929512 -2.879507 -24.656588 3.066202 6.061769 16.836800 -5.020838 -1.653618 -11.573402 8.176820 1.367064 -4.656693 -14.729286 -3.910793 30.049919 4.393292 2.626745 4.671939 -6.043322 0.391250 
1.411985 51.631973 8.369394 4.902344 3.496094 -17.987686 39.374451 1.764724 1.246062 -15.703126 19.921875 8.564453 51.063168 8.107644 2.471410 -72.099609 11.669921 -6.394509 2.000000 -2.000000 0.000000 -89.814453 9.238281 14.687499 -58.131981 -1.457361 -2.229300 -6.638746 57.119770 -11.938384 -2.000000 2.000000 0.000000 66.894531 -9.931640 -23.583984 53.694893 1.177365 -2.461163 -8.347533 -58.935047 -2.841769 -24.589653 1.885203 5.568351 20.531782 -5.139072 -2.019713 -8.110162 10.084332 -0.080314 -4.403975 -16.218096 -2.701984 32.350872 4.286652 2.794486 9.643167 -5.359344 0.471713 
1.678967 51.293221 10.253262 4.384766 3.671875 -18.525391 39.619339 0.922397 1.295143 -15.458984 20.410156 8.587390 51.063168 8.107644 2.471410 -72.822266 11.679687 -6.884765 2.000000 -2.000000 0.000000 -89.990234 8.623047 15.820312 -57.615475 -1.625934 -2.268358 -4.899298 57.223728 -11.519231 -2.000000 2.000000 0.000000 66.591797 -12.041017 -24.062498 54.052845 1.297301 -2.336865 -8.881566 -59.271809 -2.156046 -23.691509 1.270004 4.464900 22.490290 -5.430827 -2.122606 -3.756409 11.536044 -1.903433 -4.011569 -17.344547 -0.646650 33.754070 4.193064 2.765558 14.696786 -3.695808 -3.241432 
1.922923 51.301090 12.025129 4.042969 3.681641 -18.895855 40.043564 0.066328 1.380707 -15.400392 20.927736 8.535157 51.063168 8.107644 2.471410 -73.349609 11.845702 -7.576121 2.000000 -2.000000 0.000000 -89.853516 7.988281 16.466202 -57.439426 -1.625367 -2.258613 -4.240243 57.405159 -12.233438 -2.000000 2.000000 0.000000 66.943359 -13.916016 -24.572664 54.222786 1.168749 -2.481220 -8.990828 -59.897919 -1.627481 -21.915621 0.233819 4.596553 21.782679 -5.052508 -2.266615 1.395145 11.793934 -3.753405 -6.754800 -18.274658 1.819450 36.184132 3.596971 2.935446 31.546698 -1.199236 -7.273273 
2.188865 51.427147 13.762856 3.681641 3.857422 -19.091797 40.366325 -0.452599 1.206969 -15.156251 21.416016 8.574219 51.063168 8.107644 2.471410 -73.896484 11.845701 -7.919921 2.000000 -2.000000 0.000000 -89.326172 7.226563 16.856699 -57.439426 -1.625367 -2.258613 -3.871320 57.725349 -12.133501 -2.000000 2.000000 0.000000 67.597656 -15.322266 -25.207659 54.222786 1.168749 -2.481220 -9.009787 -59.859028 -0.895601 -20.460232 -0.830486 4.230215 23.737869 -5.371637 -2.220690 -0.885634 11.927051 -4.324616 -5.612326 -19.016821 3.075007 33.549442 3.728804 2.803098 43.824146 -0.163385 -11.628448 
2.462769 51.450768 15.470037 3.339844 3.837891 -18.935547 40.563408 -0.508619 0.966950 -15.107422 21.757814 8.662110 51.063168 8.107644 2.471410 -73.896484 11.845701 -8.095703 2.000000 -2.000000 0.000000 -88.662109 6.660156 16.728516 -57.791267 -1.616185 -2.268927 -3.943923 58.077332 -12.211966 -2.000000 2.000000 0.000000 68.251953 -16.425779 -25.442215 54.398582 1.159000 -2.481785 -8.662157 -60.021912 -0.538695 -18.956329 -1.552840 4.941522 25.154312 -5.352188 -2.292865 -2.774396 10.965275 -4.503989 -9.432733 -17.869959 4.291045 39.179573 3.401904 3.127833 45.973866 -1.683901 -12.233882 
2.730608 51.482281 17.149906 3.164063 3.681641 -18.417341 40.771614 0.205736 0.035469 -14.912109 21.738281 8.730469 51.063168 8.107644 2.471410 -73.349609 11.845702 -7.400338 2.000000 -2.000000 0.000000 -87.929688 6.494140 16.318357 -58.136787 -1.467573 -2.404967 -3.934066 58.565586 -12.525883 -2.000000 2.000000 0.000000 68.632813 -17.021486 -25.256765 54.223042 1.179065 -2.490399 -9.126966 -60.465691 0.579840 -17.394182 -2.323837 6.031168 26.187912 -4.876817 -2.603681 -4.390979 9.545765 -4.700525 -14.227286 -15.790002 5.265523 46.550049 2.902756 3.530542 39.748249 -2.695188 -7.708092 
2.978325 51.505920 18.806055 3.164063 3.320313 -17.567793 40.857124 2.181856 -1.674556 -14.804688 21.201174 9.003905 51.063168 8.107644 2.471410 -72.099609 11.503905 -5.984381 2.000000 -2.000000 0.000000 -88.535156 6.630859 14.267578 -58.495228 -1.598389 -2.299301 -4.670873 58.696953 -13.489933 -2.000000 2.000000 0.000000 68.896484 -18.281250 -24.309704 54.230965 1.457452 -2.063307 -8.176487 -60.652599 0.086929 -15.843097 -2.987433 5.717042 27.093906 -5.257578 -2.531229 -6.543859 8.986867 -3.933187 -19.552015 -13.550161 5.897532 54.097416 2.335712 3.837698 29.406878 -4.641167 -1.528321 
3.191915 51.482281 20.441837 3.164063 2.968750 -16.356916 40.773018 4.349360 -3.313214 -14.677735 20.673830 9.277344 51.063168 8.107644 2.471410 -70.673836 11.162107 -4.550781 2.000000 -2.000000 0.000000 -88.642578 6.982422 12.471890 -58.671040 -1.578891 -2.300438 -5.200091 58.661442 -14.155253 -2.000000 2.000000 0.000000 69.521484 -19.648438 -23.623049 54.054905 1.466633 -2.052994 -7.674504 -60.785290 0.125115 -14.093678 -3.505165 5.667336 27.453697 -5.252835 -2.542517 -7.948205 8.226660 -3.309811 -23.978807 -11.462836 6.116456 60.107487 2.354663 4.216543 18.493532 -8.042611 4.176849 
3.357322 51.450768 22.060843 3.339844 2.617188 -14.960491 40.178043 5.825698 -4.754083 -14.335938 20.292969 9.492188 51.063168 8.107644 2.471410 -69.609375 10.810546 -3.679809 2.000000 -2.000000 0.000000 -88.925781 6.611328 10.849816 -58.671040 -1.578891 -2.300438 -6.059375 58.189320 -15.555406 -2.000000 2.000000 0.000000 70.859375 -21.044922 -23.164061 53.526783 1.455178 -2.024325 -6.701224 -61.266590 -0.738303 -12.452653 -4.041436 5.245210 27.971943 -5.243063 -2.605270 -9.164524 7.673223 -1.801685 -27.318974 -10.193849 5.034758 62.165569 1.670908 4.116272 11.279062 -9.478568 6.698437 
3.460531 51.395634 23.666306 3.496094 2.275391 -13.564064 39.630959 6.583152 -5.640676 -13.955079 20.263674 9.453126 51.063168 8.107644 2.471410 -68.720703 10.615234 -3.300781 2.000000 -2.000000 0.000000 -88.613281 6.035157 9.853516 -58.671040 -1.578891 -2.300438 -6.676136 57.940502 -16.433046 -2.000000 2.000000 0.000000 72.412109 -22.441404 -23.876951 53.191097 1.634548 -2.248577 -6.179898 -61.566032 -0.699624 -10.752976 -4.499741 5.187900 28.315638 -4.774662 -2.827651 -10.025301 6.455746 -1.655752 -29.464622 -9.422154 4.133428 60.748993 1.806530 4.064755 7.616574 -10.314592 6.745115 
3.487505 51.340485 25.261932 3.681641 2.089844 -12.353516 38.672676 7.165187 -6.562702 -13.417970 20.029299 9.589845 51.063168 8.107644 2.471410 -67.998055 10.605467 -2.978516 2.000000 -2.000000 0.000000 -88.613281 6.005860 9.091797 -58.847088 -1.579459 -2.310184 -6.515944 57.978203 -16.161840 -2.000000 2.000000 0.000000 73.876953 -24.111328 -24.218748 53.010216 1.653002 -2.061712 -6.139126 -61.790413 -0.473997 -9.143623 -4.655578 4.373762 28.853365 -5.209250 -2.635929 -11.110791 6.564595 -0.740875 -31.022324 -9.217937 3.305794 57.953098 2.022924 3.965067 4.283846 -9.937354 6.431551 
3.422414 51.182922 26.850040 3.857422 1.914063 -11.298502 37.884579 7.595462 -7.585248 -12.871094 19.980473 9.602946 51.063168 8.107644 2.471410 -67.285156 10.585936 -2.861328 2.000000 -2.000000 0.000000 -88.867188 5.439453 8.789063 -59.011742 -1.420068 -2.260811 -6.849169 58.606178 -15.758721 -2.000000 2.000000 0.000000 75.361328 -25.751955 -24.818697 52.834438 1.653002 -2.061712 -5.655677 -62.041553 -0.662144 -7.462726 -4.791027 3.760748 29.023991 -5.193987 -2.667192 -12.386760 5.563179 0.032290 -32.136189 -9.315669 1.987311 53.568649 2.364960 3.823408 1.767858 -8.927309 5.363501 
3.290854 51.025360 28.428200 4.394532 1.748047 -10.234078 36.871822 7.943120 -8.472023 -12.314453 19.912109 9.788483 51.063168 8.107644 2.471410 -66.748055 10.566406 -2.714844 2.000000 -2.000000 0.000000 -88.896484 5.488282 7.901327 -59.022888 -1.569709 -2.310752 -6.140475 58.434132 -14.022233 -2.000000 2.000000 0.000000 76.513672 -27.089846 -25.400391 52.658623 1.672500 -2.060578 -5.190514 -62.302807 -0.810600 -5.730031 -5.066686 3.115133 29.032368 -5.209656 -2.641795 -13.010960 5.047612 0.202248 -32.777664 -9.246398 0.998399 48.528885 3.263742 3.822424 -0.555303 -7.769762 4.253515 
